<svg width="25" height="25" viewBox="0 0 25 25" fill="none" xmlns="http://www.w3.org/2000/svg">
<path fill-rule="evenodd" clip-rule="evenodd" d="M12.5 0C5.60735 0 0 5.60735 0 12.5C0 19.3926 5.60735 25 12.5 25C19.3926 25 25 19.3926 25 12.5C25 5.60735 19.3912 0 12.5 0ZM1.50735 13.2353H5.82647C5.89118 14.7412 6.13676 16.2221 6.58088 17.6471H2.75294C2.04559 16.3147 1.61176 14.8191 1.50735 13.2353ZM1.50735 11.7647H5.82647C5.88971 10.2588 6.13382 8.77794 6.57647 7.35294H2.75294C2.04559 8.68529 1.61176 10.1809 1.50735 11.7647ZM8.13382 7.35294H16.8044C17.2897 8.77206 17.5721 10.2529 17.6412 11.7647H7.29706C7.36471 10.2529 7.64853 8.77206 8.13382 7.35294ZM17.6426 13.2353H7.29706C7.36765 14.7471 7.65147 16.2279 8.13824 17.6471H16.8015C17.2882 16.2279 17.5706 14.7471 17.6426 13.2353ZM23.4926 13.2353C23.3882 14.8191 22.9544 16.3147 22.2471 17.6471H18.3588C18.8029 16.2221 19.0485 14.7412 19.1132 13.2353H23.4926ZM18.3632 7.35294C18.8059 8.77794 19.05 10.2588 19.1132 11.7647H23.4926C23.3868 10.1809 22.9529 8.68529 22.2471 7.35294H18.3632ZM21.3029 5.88235H17.8412C17.2647 4.47794 16.4941 3.15 15.5618 1.91176C17.8824 2.58382 19.8824 4 21.3029 5.88235ZM16.2206 5.88235C15.5029 4.30588 14.5324 2.83088 13.3206 1.51176L13.2258 1.50502C12.9853 1.48782 12.7443 1.47059 12.5 1.47059C12.2 1.47059 11.9074 1.49265 11.6147 1.51471C10.4029 2.83382 9.43382 4.30735 8.71765 5.88235H16.2206ZM9.36324 1.93088C8.43824 3.16324 7.67059 4.48529 7.09853 5.88235H3.69559C5.1 4.01912 7.07353 2.61176 9.36324 1.93088ZM7.10294 19.1176H3.69559C5.10294 20.9853 7.08235 22.3941 9.37794 23.0721C8.44853 21.8397 7.67794 20.5162 7.10294 19.1176ZM11.6324 23.4853C10.4176 22.1662 9.44412 20.6926 8.72353 19.1176H16.2147C15.4941 20.6941 14.5206 22.1691 13.3044 23.4882L13.2142 23.4948L13.2142 23.4948C12.9777 23.5121 12.74 23.5294 12.5 23.5294C12.2059 23.5294 11.9191 23.5074 11.6324 23.4853ZM17.8353 19.1176C17.2574 20.5235 16.4809 21.8544 15.5456 23.0926C17.8735 22.4221 19.8794 21.0044 21.3029 19.1176H17.8353Z" fill="#7564FB"/>
</svg>
