<svg width="60" height="64" viewBox="0 0 60 64" fill="none" xmlns="http://www.w3.org/2000/svg">
<path fill-rule="evenodd" clip-rule="evenodd" d="M33.3333 3.33333C33.3333 1.4924 31.841 0 30 0C28.159 0 26.6667 1.4924 26.6667 3.33333V33.3333C26.6667 35.1743 28.159 36.6667 30 36.6667C31.841 36.6667 33.3333 35.1743 33.3333 33.3333V3.33333ZM18.6973 12.9147C20.307 12.0214 20.8879 9.99237 19.9946 8.38267C19.1014 6.77293 17.0724 6.1921 15.4626 7.08533C6.24843 12.1983 0 22.0338 0 33.3333C0 49.902 13.4315 63.3333 30 63.3333C46.5687 63.3333 60 49.902 60 33.3333C60 22.2249 53.9607 12.5309 45.0023 7.34883C43.409 6.42703 41.3697 6.97157 40.448 8.5651C39.5263 10.1586 40.0707 12.1977 41.6643 13.1195C48.6473 17.159 53.3333 24.7009 53.3333 33.3333C53.3333 46.22 42.8867 56.6667 30 56.6667C17.1134 56.6667 6.66667 46.22 6.66667 33.3333C6.66667 24.5527 11.5154 16.8999 18.6973 12.9147Z" fill="white"/>
</svg>
